<svg xmlns="http://www.w3.org/2000/svg" xmlns:xlink="http://www.w3.org/1999/xlink" width="500" zoomAndPan="magnify" viewBox="0 0 375 299.999988" height="400" preserveAspectRatio="xMidYMid meet" version="1.0"><defs><g><g id="id1"/></g><clipPath id="id2"><path d="M 106.761719 65.933594 L 265 65.933594 L 265 166.242188 L 106.761719 166.242188 Z M 106.761719 65.933594 " clip-rule="nonzero"/></clipPath><clipPath id="id3"><path d="M 109.296875 65.933594 L 267.535156 65.933594 L 267.535156 166.242188 L 109.296875 166.242188 Z M 109.296875 65.933594 " clip-rule="nonzero"/></clipPath><clipPath id="id4"><path d="M 126 112 L 126.078125 112 L 126.078125 129 L 126 129 Z M 126 112 " clip-rule="nonzero"/></clipPath><clipPath id="id5"><path d="M 102 93.535156 L 123 93.535156 L 123 147.800781 L 102 147.800781 Z M 102 93.535156 " clip-rule="nonzero"/></clipPath><clipPath id="id6"><path d="M 86.710938 100 L 101 100 L 101 143 L 86.710938 143 Z M 86.710938 100 " clip-rule="nonzero"/></clipPath><clipPath id="id7"><path d="M 275 112 L 275.761719 112 L 275.761719 129 L 275 129 Z M 275 112 " clip-rule="nonzero"/></clipPath><clipPath id="id8"><path d="M 252 93.535156 L 272 93.535156 L 272 147.800781 L 252 147.800781 Z M 252 93.535156 " clip-rule="nonzero"/></clipPath><clipPath id="id9"><path d="M 273 100 L 288.015625 100 L 288.015625 143 L 273 143 Z M 273 100 " clip-rule="nonzero"/></clipPath></defs><g clip-path="url(#id2)"><path fill="rgb(85.099792%, 85.099792%, 85.099792%)" d="M 262.351562 117.371094 L 236.738281 117.371094 C 233.457031 117.371094 230.636719 119.882812 230.023438 123.347656 L 227.808594 135.921875 C 227.769531 136.160156 227.625 136.710938 227.199219 136.710938 C 227.195312 136.710938 227.195312 136.710938 227.195312 136.710938 C 226.789062 136.710938 226.632812 136.222656 226.578125 135.933594 L 220.136719 101.53125 C 219.558594 98.476562 217.070312 96.410156 214.195312 96.460938 C 211.261719 96.527344 208.914062 98.738281 208.480469 101.828125 L 200.246094 160.144531 C 200.203125 160.464844 200.058594 161 199.625 161 C 199.625 161 199.621094 161 199.617188 161 C 199.132812 160.992188 199.011719 160.359375 198.984375 160.089844 L 189.636719 71.542969 C 189.296875 68.28125 186.910156 65.976562 183.839844 65.933594 C 183.8125 65.933594 183.78125 65.933594 183.753906 65.933594 C 180.730469 65.933594 178.332031 68.152344 177.90625 71.359375 L 168.949219 138.089844 C 168.90625 138.414062 168.769531 138.953125 168.332031 138.953125 C 168.328125 138.953125 168.328125 138.953125 168.324219 138.953125 C 167.839844 138.949219 167.71875 138.3125 167.6875 138.042969 L 163.414062 98.597656 C 163.070312 95.445312 160.753906 93.148438 157.78125 93.011719 C 154.886719 92.875 152.375 94.910156 151.753906 97.960938 L 147.207031 120.171875 C 147.148438 120.457031 147.035156 120.960938 146.59375 120.925781 C 146.285156 120.921875 146.058594 120.625 145.972656 120.105469 L 144.839844 113.441406 C 144.378906 110.679688 142.308594 108.609375 139.691406 108.292969 C 137.105469 107.980469 134.726562 109.40625 133.625 111.957031 L 131.488281 117.03125 C 131.386719 117.269531 131.234375 117.371094 131.179688 117.371094 L 109.414062 117.371094 C 107.957031 117.371094 106.777344 118.546875 106.777344 119.996094 C 106.777344 121.449219 107.957031 122.625 109.414062 122.625 L 131.179688 122.625 C 133.410156 122.625 135.4375 121.226562 136.347656 119.0625 L 138.476562 114.011719 C 138.585938 113.765625 138.773438 113.472656 139.054688 113.511719 C 139.34375 113.546875 139.5625 113.839844 139.640625 114.308594 L 140.773438 120.980469 C 141.28125 123.992188 143.636719 126.128906 146.5 126.179688 C 146.535156 126.179688 146.570312 126.179688 146.601562 126.179688 C 149.40625 126.179688 151.769531 124.15625 152.375 121.222656 L 156.921875 99.007812 C 156.992188 98.65625 157.160156 98.265625 157.539062 98.257812 C 157.878906 98.273438 158.109375 98.605469 158.171875 99.164062 L 162.445312 138.609375 C 162.800781 141.871094 165.195312 144.171875 168.261719 144.207031 C 171.238281 144.226562 173.746094 142.011719 174.175781 138.78125 L 183.132812 72.050781 C 183.175781 71.726562 183.308594 71.144531 183.765625 71.1875 C 184.226562 71.191406 184.355469 71.753906 184.390625 72.089844 L 193.738281 160.636719 C 194.078125 163.886719 196.457031 166.195312 199.519531 166.25 C 199.554688 166.253906 199.59375 166.253906 199.632812 166.253906 C 202.621094 166.253906 205.011719 164.0625 205.46875 160.882812 L 213.703125 102.558594 C 213.777344 102.027344 214.003906 101.722656 214.324219 101.714844 C 214.328125 101.710938 214.332031 101.710938 214.335938 101.710938 C 214.746094 101.710938 214.898438 102.207031 214.957031 102.5 L 221.394531 136.898438 C 221.957031 139.886719 224.339844 141.96875 227.191406 141.96875 C 227.207031 141.96875 227.21875 141.96875 227.234375 141.96875 C 230.105469 141.949219 232.480469 139.832031 233.003906 136.828125 L 235.21875 124.253906 C 235.382812 123.324219 236.035156 122.625 236.738281 122.625 L 262.351562 122.625 C 263.804688 122.625 264.988281 121.449219 264.988281 119.996094 C 264.988281 118.546875 263.804688 117.371094 262.351562 117.371094 Z M 262.351562 117.371094 " fill-opacity="1" fill-rule="nonzero"/></g><g clip-path="url(#id3)"><path fill="rgb(100%, 100%, 100%)" d="M 264.882812 117.371094 L 239.273438 117.371094 C 235.992188 117.371094 233.171875 119.882812 232.558594 123.347656 L 230.34375 135.921875 C 230.300781 136.160156 230.160156 136.710938 229.730469 136.710938 C 229.730469 136.710938 229.730469 136.710938 229.726562 136.710938 C 229.320312 136.710938 229.167969 136.222656 229.113281 135.933594 L 222.671875 101.53125 C 222.09375 98.476562 219.601562 96.410156 216.730469 96.460938 C 213.796875 96.527344 211.445312 98.738281 211.015625 101.828125 L 202.78125 160.144531 C 202.738281 160.464844 202.59375 161 202.160156 161 C 202.160156 161 202.15625 161 202.152344 161 C 201.667969 160.992188 201.546875 160.359375 201.519531 160.089844 L 192.171875 71.542969 C 191.828125 68.28125 189.445312 65.976562 186.371094 65.933594 C 186.34375 65.933594 186.316406 65.933594 186.289062 65.933594 C 183.265625 65.933594 180.867188 68.152344 180.441406 71.359375 L 171.484375 138.089844 C 171.441406 138.414062 171.304688 138.953125 170.863281 138.953125 C 170.863281 138.953125 170.859375 138.953125 170.859375 138.953125 C 170.375 138.949219 170.253906 138.3125 170.222656 138.042969 L 165.949219 98.597656 C 165.605469 95.445312 163.289062 93.148438 160.316406 93.011719 C 157.421875 92.875 154.910156 94.910156 154.289062 97.960938 L 149.742188 120.171875 C 149.683594 120.457031 149.570312 120.960938 149.128906 120.925781 C 148.820312 120.921875 148.59375 120.625 148.507812 120.105469 L 147.375 113.441406 C 146.914062 110.679688 144.84375 108.609375 142.226562 108.292969 C 139.640625 107.980469 137.261719 109.40625 136.160156 111.957031 L 134.019531 117.03125 C 133.921875 117.269531 133.769531 117.371094 133.714844 117.371094 L 111.945312 117.371094 C 110.492188 117.371094 109.308594 118.546875 109.308594 119.996094 C 109.308594 121.449219 110.492188 122.625 111.945312 122.625 L 133.714844 122.625 C 135.945312 122.625 137.972656 121.226562 138.882812 119.0625 L 141.011719 114.011719 C 141.121094 113.765625 141.304688 113.472656 141.589844 113.511719 C 141.878906 113.546875 142.097656 113.839844 142.175781 114.308594 L 143.304688 120.980469 C 143.816406 123.992188 146.167969 126.128906 149.03125 126.179688 C 149.070312 126.179688 149.101562 126.179688 149.136719 126.179688 C 151.941406 126.179688 154.304688 124.15625 154.910156 121.222656 L 159.457031 99.007812 C 159.527344 98.65625 159.695312 98.265625 160.074219 98.257812 C 160.414062 98.273438 160.644531 98.605469 160.707031 99.164062 L 164.980469 138.609375 C 165.335938 141.871094 167.730469 144.171875 170.796875 144.207031 C 173.773438 144.226562 176.28125 142.011719 176.710938 138.78125 L 185.667969 72.050781 C 185.710938 71.726562 185.84375 71.144531 186.300781 71.1875 C 186.761719 71.191406 186.890625 71.753906 186.925781 72.089844 L 196.269531 160.636719 C 196.613281 163.886719 198.992188 166.195312 202.054688 166.25 C 202.089844 166.253906 202.128906 166.253906 202.167969 166.253906 C 205.15625 166.253906 207.546875 164.0625 208.003906 160.882812 L 216.238281 102.558594 C 216.3125 102.027344 216.539062 101.722656 216.859375 101.714844 C 216.863281 101.710938 216.867188 101.710938 216.871094 101.710938 C 217.277344 101.710938 217.433594 102.207031 217.488281 102.5 L 223.929688 136.898438 C 224.492188 139.886719 226.875 141.96875 229.726562 141.96875 C 229.738281 141.96875 229.753906 141.96875 229.765625 141.96875 C 232.640625 141.949219 235.015625 139.832031 235.539062 136.828125 L 237.753906 124.253906 C 237.917969 123.324219 238.570312 122.625 239.273438 122.625 L 264.882812 122.625 C 266.339844 122.625 267.519531 121.449219 267.519531 119.996094 C 267.519531 118.546875 266.339844 117.371094 264.882812 117.371094 Z M 264.882812 117.371094 " fill-opacity="1" fill-rule="nonzero"/></g><g clip-path="url(#id4)"><path fill="rgb(100%, 59.609985%, 0%)" d="M 126.003906 112.714844 L 164.855469 112.714844 L 164.855469 128.246094 L 126.003906 128.246094 Z M 126.003906 112.714844 " fill-opacity="1" fill-rule="nonzero"/></g><g clip-path="url(#id5)"><path fill="rgb(100%, 59.609985%, 0%)" d="M 122.117188 113.6875 L 122.117188 97.1875 C 122.117188 95.84375 122.117188 93.304688 118.230469 93.304688 L 106.574219 93.304688 C 102.691406 93.304688 102.691406 95.84375 102.691406 97.1875 L 102.691406 143.773438 C 102.691406 145.117188 102.691406 147.65625 106.574219 147.65625 L 118.230469 147.65625 C 122.117188 147.65625 122.117188 145.117188 122.117188 143.773438 Z M 122.117188 113.6875 " fill-opacity="1" fill-rule="nonzero"/></g><g clip-path="url(#id6)"><path fill="rgb(100%, 41.569519%, 9.01947%)" d="M 100.839844 100.078125 L 91.421875 100.078125 C 86.710938 100.078125 86.710938 103.160156 86.710938 104.789062 L 86.710938 137.753906 C 86.710938 139.382812 86.710938 142.464844 91.421875 142.464844 L 100.839844 142.464844 Z M 100.839844 100.078125 " fill-opacity="1" fill-rule="nonzero"/></g><path fill="rgb(100%, 100%, 100%)" d="M 83.621094 127.097656 L 77.460938 127.097656 C 76.433594 127.097656 75.597656 126.28125 75.597656 125.285156 L 75.597656 116.207031 C 75.597656 115.207031 76.433594 114.390625 77.460938 114.390625 L 83.621094 114.390625 C 84.648438 114.390625 85.488281 115.207031 85.488281 116.207031 L 85.488281 125.285156 C 85.488281 126.28125 84.648438 127.097656 83.621094 127.097656 " fill-opacity="1" fill-rule="nonzero"/><g clip-path="url(#id7)"><path fill="rgb(100%, 59.609985%, 0%)" d="M 275.683594 112.714844 L 314.539062 112.714844 L 314.539062 128.246094 L 275.683594 128.246094 Z M 275.683594 112.714844 " fill-opacity="1" fill-rule="nonzero"/></g><g clip-path="url(#id8)"><path fill="rgb(100%, 59.609985%, 0%)" d="M 271.800781 113.6875 L 271.800781 97.1875 C 271.800781 95.84375 271.800781 93.304688 267.914062 93.304688 L 256.257812 93.304688 C 252.375 93.304688 252.375 95.84375 252.375 97.1875 L 252.375 143.773438 C 252.375 145.117188 252.375 147.65625 256.257812 147.65625 L 267.914062 147.65625 C 271.800781 147.65625 271.800781 145.117188 271.800781 143.773438 Z M 271.800781 113.6875 " fill-opacity="1" fill-rule="nonzero"/></g><g clip-path="url(#id9)"><path fill="rgb(100%, 41.569519%, 9.01947%)" d="M 273.886719 100.078125 L 283.304688 100.078125 C 288.015625 100.078125 288.015625 103.160156 288.015625 104.789062 L 288.015625 137.753906 C 288.015625 139.382812 288.015625 142.464844 283.304688 142.464844 L 273.886719 142.464844 Z M 273.886719 100.078125 " fill-opacity="1" fill-rule="nonzero"/></g><path fill="rgb(100%, 100%, 100%)" d="M 297.726562 127.097656 L 291.566406 127.097656 C 290.539062 127.097656 289.699219 126.28125 289.699219 125.285156 L 289.699219 116.207031 C 289.699219 115.207031 290.539062 114.390625 291.566406 114.390625 L 297.726562 114.390625 C 298.753906 114.390625 299.589844 115.207031 299.589844 116.207031 L 299.589844 125.285156 C 299.589844 126.28125 298.753906 127.097656 297.726562 127.097656 " fill-opacity="1" fill-rule="nonzero"/><g fill="rgb(100%, 59.609985%, 0%)" fill-opacity="0.4"><g transform="translate(136.862383, 233.91335)"><g><path d="M 12.046875 0 L 10.59375 -4.828125 L 3.875 -4.828125 L 2.453125 0 L -0.921875 0 L 5.40625 -20.265625 L 9.09375 -20.265625 L 15.421875 0 Z M 4.734375 -7.671875 L 9.734375 -7.671875 L 7.25 -16.015625 Z M 4.734375 -7.671875 "/></g></g></g><g fill="rgb(100%, 59.609985%, 0%)" fill-opacity="0.4"><g transform="translate(154.211717, 233.91335)"><g><path d="M 14.78125 -6.1875 C 14.53125 -5.195312 14.195312 -4.296875 13.78125 -3.484375 C 13.375 -2.679688 12.867188 -1.992188 12.265625 -1.421875 C 11.671875 -0.859375 10.976562 -0.421875 10.1875 -0.109375 C 9.394531 0.203125 8.488281 0.359375 7.46875 0.359375 C 6.050781 0.359375 4.847656 0.0664062 3.859375 -0.515625 C 2.878906 -1.097656 2.078125 -1.878906 1.453125 -2.859375 C 0.828125 -3.835938 0.375 -4.957031 0.09375 -6.21875 C -0.175781 -7.476562 -0.3125 -8.785156 -0.3125 -10.140625 C -0.3125 -11.492188 -0.175781 -12.800781 0.09375 -14.0625 C 0.375 -15.320312 0.820312 -16.429688 1.4375 -17.390625 C 2.050781 -18.359375 2.832031 -19.132812 3.78125 -19.71875 C 4.738281 -20.3125 5.90625 -20.609375 7.28125 -20.609375 C 7.726562 -20.609375 8.175781 -20.550781 8.625 -20.4375 C 9.082031 -20.320312 9.507812 -20.144531 9.90625 -19.90625 C 10.300781 -19.675781 10.644531 -19.390625 10.9375 -19.046875 C 11.226562 -18.703125 11.4375 -18.3125 11.5625 -17.875 L 11.5625 -20.265625 L 14.46875 -20.265625 L 14.46875 -12.59375 L 11.5625 -12.59375 C 11.5625 -13.21875 11.484375 -13.835938 11.328125 -14.453125 C 11.171875 -15.078125 10.921875 -15.625 10.578125 -16.09375 C 10.242188 -16.570312 9.816406 -16.960938 9.296875 -17.265625 C 8.785156 -17.566406 8.175781 -17.71875 7.46875 -17.71875 C 6.5625 -17.71875 5.816406 -17.492188 5.234375 -17.046875 C 4.648438 -16.597656 4.179688 -16.007812 3.828125 -15.28125 C 3.484375 -14.5625 3.238281 -13.75 3.09375 -12.84375 C 2.957031 -11.945312 2.890625 -11.046875 2.890625 -10.140625 C 2.890625 -9.222656 2.957031 -8.3125 3.09375 -7.40625 C 3.238281 -6.5 3.476562 -5.679688 3.8125 -4.953125 C 4.15625 -4.234375 4.625 -3.648438 5.21875 -3.203125 C 5.8125 -2.765625 6.5625 -2.546875 7.46875 -2.546875 C 8.78125 -2.546875 9.789062 -2.960938 10.5 -3.796875 C 11.207031 -4.640625 11.773438 -5.769531 12.203125 -7.1875 Z M 14.78125 -6.1875 "/></g></g></g><g fill="rgb(100%, 59.609985%, 0%)" fill-opacity="0.4"><g transform="translate(171.56105, 233.91335)"><g><path d="M 14.4375 -12.875 L 11.5625 -12.875 L 11.5625 -17.359375 L 8.828125 -17.359375 L 8.828125 -2.890625 L 12.046875 -2.890625 L 12.046875 0 L 2.421875 0 L 2.421875 -2.890625 L 5.625 -2.890625 L 5.625 -17.359375 L 2.859375 -17.359375 L 2.859375 -12.875 L 0 -12.875 L 0 -20.265625 L 14.4375 -20.265625 Z M 14.4375 -12.875 "/></g></g></g><g fill="rgb(100%, 59.609985%, 0%)" fill-opacity="0.4"><g transform="translate(188.910383, 233.91335)"><g><path d="M 12.140625 0 L 2.421875 0 L 2.421875 -2.890625 L 5.625 -2.890625 L 5.625 -17.359375 L 2.421875 -17.359375 L 2.421875 -20.265625 L 12.140625 -20.265625 L 12.140625 -17.359375 L 8.828125 -17.359375 L 8.828125 -2.890625 L 12.140625 -2.890625 Z M 12.140625 0 "/></g></g></g><g fill="rgb(100%, 59.609985%, 0%)" fill-opacity="0.4"><g transform="translate(206.259716, 233.91335)"><g><path d="M 15.390625 -20.265625 L 9.0625 0 L 5.40625 0 L -0.921875 -20.265625 L 2.453125 -20.265625 L 7.25 -4.21875 L 12.015625 -20.265625 Z M 15.390625 -20.265625 "/></g></g></g><g fill="rgb(100%, 59.609985%, 0%)" fill-opacity="0.4"><g transform="translate(223.609049, 233.91335)"><g><path d="M 13.703125 0 L 0.765625 0 L 0.765625 -20.265625 L 13.703125 -20.265625 L 13.703125 -17.359375 L 3.96875 -17.359375 L 3.96875 -11.765625 L 11.5625 -11.765625 L 11.5625 -8.859375 L 3.96875 -8.859375 L 3.96875 -2.890625 L 13.703125 -2.890625 Z M 13.703125 0 "/></g></g></g><g fill="rgb(100%, 59.609985%, 0%)" fill-opacity="1"><g transform="translate(135.457028, 232.507995)"><g><path d="M 12.046875 0 L 10.59375 -4.828125 L 3.875 -4.828125 L 2.453125 0 L -0.921875 0 L 5.40625 -20.265625 L 9.09375 -20.265625 L 15.421875 0 Z M 4.734375 -7.671875 L 9.734375 -7.671875 L 7.25 -16.015625 Z M 4.734375 -7.671875 "/></g></g></g><g fill="rgb(100%, 59.609985%, 0%)" fill-opacity="1"><g transform="translate(152.806361, 232.507995)"><g><path d="M 14.78125 -6.1875 C 14.53125 -5.195312 14.195312 -4.296875 13.78125 -3.484375 C 13.375 -2.679688 12.867188 -1.992188 12.265625 -1.421875 C 11.671875 -0.859375 10.976562 -0.421875 10.1875 -0.109375 C 9.394531 0.203125 8.488281 0.359375 7.46875 0.359375 C 6.050781 0.359375 4.847656 0.0664062 3.859375 -0.515625 C 2.878906 -1.097656 2.078125 -1.878906 1.453125 -2.859375 C 0.828125 -3.835938 0.375 -4.957031 0.09375 -6.21875 C -0.175781 -7.476562 -0.3125 -8.785156 -0.3125 -10.140625 C -0.3125 -11.492188 -0.175781 -12.800781 0.09375 -14.0625 C 0.375 -15.320312 0.820312 -16.429688 1.4375 -17.390625 C 2.050781 -18.359375 2.832031 -19.132812 3.78125 -19.71875 C 4.738281 -20.3125 5.90625 -20.609375 7.28125 -20.609375 C 7.726562 -20.609375 8.175781 -20.550781 8.625 -20.4375 C 9.082031 -20.320312 9.507812 -20.144531 9.90625 -19.90625 C 10.300781 -19.675781 10.644531 -19.390625 10.9375 -19.046875 C 11.226562 -18.703125 11.4375 -18.3125 11.5625 -17.875 L 11.5625 -20.265625 L 14.46875 -20.265625 L 14.46875 -12.59375 L 11.5625 -12.59375 C 11.5625 -13.21875 11.484375 -13.835938 11.328125 -14.453125 C 11.171875 -15.078125 10.921875 -15.625 10.578125 -16.09375 C 10.242188 -16.570312 9.816406 -16.960938 9.296875 -17.265625 C 8.785156 -17.566406 8.175781 -17.71875 7.46875 -17.71875 C 6.5625 -17.71875 5.816406 -17.492188 5.234375 -17.046875 C 4.648438 -16.597656 4.179688 -16.007812 3.828125 -15.28125 C 3.484375 -14.5625 3.238281 -13.75 3.09375 -12.84375 C 2.957031 -11.945312 2.890625 -11.046875 2.890625 -10.140625 C 2.890625 -9.222656 2.957031 -8.3125 3.09375 -7.40625 C 3.238281 -6.5 3.476562 -5.679688 3.8125 -4.953125 C 4.15625 -4.234375 4.625 -3.648438 5.21875 -3.203125 C 5.8125 -2.765625 6.5625 -2.546875 7.46875 -2.546875 C 8.78125 -2.546875 9.789062 -2.960938 10.5 -3.796875 C 11.207031 -4.640625 11.773438 -5.769531 12.203125 -7.1875 Z M 14.78125 -6.1875 "/></g></g></g><g fill="rgb(100%, 59.609985%, 0%)" fill-opacity="1"><g transform="translate(170.155694, 232.507995)"><g><path d="M 14.4375 -12.875 L 11.5625 -12.875 L 11.5625 -17.359375 L 8.828125 -17.359375 L 8.828125 -2.890625 L 12.046875 -2.890625 L 12.046875 0 L 2.421875 0 L 2.421875 -2.890625 L 5.625 -2.890625 L 5.625 -17.359375 L 2.859375 -17.359375 L 2.859375 -12.875 L 0 -12.875 L 0 -20.265625 L 14.4375 -20.265625 Z M 14.4375 -12.875 "/></g></g></g><g fill="rgb(100%, 59.609985%, 0%)" fill-opacity="1"><g transform="translate(187.505027, 232.507995)"><g><path d="M 12.140625 0 L 2.421875 0 L 2.421875 -2.890625 L 5.625 -2.890625 L 5.625 -17.359375 L 2.421875 -17.359375 L 2.421875 -20.265625 L 12.140625 -20.265625 L 12.140625 -17.359375 L 8.828125 -17.359375 L 8.828125 -2.890625 L 12.140625 -2.890625 Z M 12.140625 0 "/></g></g></g><g fill="rgb(100%, 59.609985%, 0%)" fill-opacity="1"><g transform="translate(204.85436, 232.507995)"><g><path d="M 15.390625 -20.265625 L 9.0625 0 L 5.40625 0 L -0.921875 -20.265625 L 2.453125 -20.265625 L 7.25 -4.21875 L 12.015625 -20.265625 Z M 15.390625 -20.265625 "/></g></g></g><g fill="rgb(100%, 59.609985%, 0%)" fill-opacity="1"><g transform="translate(222.203693, 232.507995)"><g><path d="M 13.703125 0 L 0.765625 0 L 0.765625 -20.265625 L 13.703125 -20.265625 L 13.703125 -17.359375 L 3.96875 -17.359375 L 3.96875 -11.765625 L 11.5625 -11.765625 L 11.5625 -8.859375 L 3.96875 -8.859375 L 3.96875 -2.890625 L 13.703125 -2.890625 Z M 13.703125 0 "/></g></g></g></svg>