<svg xmlns="http://www.w3.org/2000/svg" xmlns:xlink="http://www.w3.org/1999/xlink" width="500" zoomAndPan="magnify" viewBox="0 0 375 299.999988" height="400" preserveAspectRatio="xMidYMid meet" version="1.0"><defs><clipPath id="id1"><path d="M 249 41.027344 L 303.921875 41.027344 L 303.921875 96 L 249 96 Z M 249 41.027344 " clip-rule="nonzero"/></clipPath><clipPath id="id2"><path d="M 86.027344 204 L 141 204 L 141 258.921875 L 86.027344 258.921875 Z M 86.027344 204 " clip-rule="nonzero"/></clipPath><clipPath id="id3"><path d="M 226 41.027344 L 303.921875 41.027344 L 303.921875 118 L 226 118 Z M 226 41.027344 " clip-rule="nonzero"/></clipPath><clipPath id="id4"><path d="M 87 182 L 164 182 L 164 258.921875 L 87 258.921875 Z M 87 182 " clip-rule="nonzero"/></clipPath></defs><path fill="rgb(87.449646%, 52.549744%, 0.779724%)" d="M 194.878906 299.761719 C 154.863281 299.761719 117.183594 284.183594 88.910156 255.851562 C 60.574219 227.574219 45 189.894531 45 149.878906 C 45 109.863281 60.574219 72.183594 88.910156 43.910156 C 117.183594 15.574219 154.863281 0 194.878906 0 C 234.894531 0 272.574219 15.574219 300.851562 43.910156 C 329.183594 72.246094 344.761719 109.863281 344.761719 149.878906 C 344.761719 189.894531 329.183594 227.574219 300.851562 255.851562 C 272.574219 284.183594 234.894531 299.761719 194.878906 299.761719 Z M 194.878906 8.984375 C 157.261719 8.984375 121.855469 23.664062 95.257812 50.257812 C 68.664062 76.855469 53.984375 112.261719 53.984375 149.878906 C 53.984375 187.5 68.664062 222.902344 95.257812 249.5 C 121.855469 276.097656 157.261719 290.773438 194.878906 290.773438 C 232.5 290.773438 267.902344 276.097656 294.5 249.5 C 321.097656 222.902344 335.773438 187.5 335.773438 149.878906 C 335.773438 112.261719 321.097656 76.855469 294.5 50.257812 C 267.902344 23.664062 232.5 8.984375 194.878906 8.984375 Z M 194.878906 8.984375 " fill-opacity="1" fill-rule="nonzero"/><path fill="rgb(100%, 59.609985%, 0%)" d="M 195.023438 8.324219 C 116.765625 8.324219 53.324219 71.765625 53.324219 150.023438 C 53.324219 228.28125 116.765625 291.722656 195.023438 291.722656 C 273.28125 291.722656 336.722656 228.28125 336.722656 150.023438 C 336.722656 71.765625 273.28125 8.324219 195.023438 8.324219 " fill-opacity="1" fill-rule="nonzero"/><path fill="rgb(100%, 100%, 100%)" d="M 285.566406 59.109375 C 275.019531 48.589844 265.488281 41.054688 264.273438 42.269531 C 263.070312 41.851562 261.679688 42.121094 260.722656 43.082031 L 251.605469 52.222656 C 250.273438 53.5625 250.273438 55.734375 251.617188 57.070312 L 287.789062 93.144531 C 289.132812 94.484375 291.300781 94.480469 292.640625 93.136719 L 301.75 84 C 302.753906 82.996094 303 81.523438 302.5 80.289062 C 303.457031 78.863281 295.960938 69.476562 285.566406 59.109375 " fill-opacity="1" fill-rule="nonzero"/><g clip-path="url(#id1)"><path fill="rgb(100%, 59.609985%, 0%)" d="M 285.566406 59.109375 L 286.273438 58.398438 C 281.355469 53.492188 276.65625 49.234375 272.890625 46.179688 C 271.003906 44.652344 269.359375 43.429688 268.011719 42.570312 C 267.335938 42.140625 266.734375 41.800781 266.199219 41.554688 C 265.929688 41.433594 265.675781 41.332031 265.425781 41.261719 C 265.175781 41.1875 264.929688 41.132812 264.652344 41.132812 C 264.488281 41.132812 264.304688 41.15625 264.113281 41.21875 C 263.921875 41.28125 263.71875 41.398438 263.554688 41.566406 L 264.273438 42.269531 L 264.605469 41.320312 C 264.128906 41.15625 263.636719 41.070312 263.144531 41.070312 C 262.011719 41.070312 260.871094 41.507812 260.007812 42.375 L 260.007812 42.371094 L 250.894531 51.511719 C 250.035156 52.375 249.601562 53.511719 249.601562 54.640625 C 249.601562 55.773438 250.039062 56.917969 250.90625 57.78125 L 287.082031 93.855469 C 287.945312 94.71875 289.082031 95.152344 290.210938 95.152344 C 291.347656 95.152344 292.484375 94.714844 293.347656 93.847656 L 302.460938 84.710938 L 302.464844 84.710938 C 303.324219 83.847656 303.757812 82.707031 303.753906 81.578125 C 303.753906 81.011719 303.648438 80.445312 303.429688 79.910156 L 302.5 80.289062 L 303.335938 80.847656 C 303.535156 80.546875 303.589844 80.226562 303.589844 79.964844 C 303.585938 79.6875 303.535156 79.441406 303.460938 79.195312 C 303.324219 78.726562 303.097656 78.238281 302.789062 77.679688 C 302.25 76.710938 301.460938 75.542969 300.445312 74.1875 C 297.398438 70.136719 292.328125 64.4375 286.273438 58.398438 L 285.566406 59.109375 L 284.851562 59.824219 C 289.730469 64.6875 293.964844 69.335938 296.96875 73.015625 C 298.46875 74.855469 299.660156 76.457031 300.453125 77.699219 C 300.851562 78.320312 301.152344 78.855469 301.339844 79.257812 C 301.433594 79.464844 301.496094 79.636719 301.535156 79.761719 C 301.570312 79.886719 301.578125 79.964844 301.578125 79.964844 L 302.011719 79.964844 L 301.664062 79.730469 C 301.574219 79.867188 301.578125 79.964844 301.578125 79.964844 L 302.011719 79.964844 L 301.664062 79.730469 C 301.476562 80.007812 301.445312 80.359375 301.570312 80.667969 C 301.683594 80.957031 301.746094 81.269531 301.746094 81.578125 C 301.746094 82.203125 301.511719 82.816406 301.039062 83.292969 L 291.925781 92.429688 C 291.449219 92.90625 290.832031 93.140625 290.210938 93.140625 C 289.589844 93.140625 288.976562 92.90625 288.5 92.429688 L 252.328125 56.355469 C 251.847656 55.878906 251.613281 55.265625 251.613281 54.640625 C 251.613281 54.019531 251.847656 53.40625 252.316406 52.933594 L 261.433594 43.792969 C 261.90625 43.316406 262.519531 43.085938 263.144531 43.082031 C 263.414062 43.082031 263.683594 43.128906 263.941406 43.21875 C 264.308594 43.347656 264.71875 43.25 264.992188 42.972656 L 264.558594 42.550781 L 264.75 43.128906 C 264.816406 43.105469 264.914062 43.054688 264.992188 42.972656 L 264.558594 42.550781 L 264.75 43.128906 L 264.652344 42.835938 L 264.652344 43.144531 C 264.652344 43.144531 264.6875 43.144531 264.75 43.128906 L 264.652344 42.835938 L 264.652344 43.144531 C 264.65625 43.144531 264.734375 43.152344 264.859375 43.191406 C 265.097656 43.257812 265.492188 43.425781 265.96875 43.691406 C 266.8125 44.152344 267.929688 44.902344 269.238281 45.878906 C 273.175781 48.820312 278.855469 53.835938 284.851562 59.824219 L 285.566406 59.109375 " fill-opacity="1" fill-rule="nonzero"/></g><path fill="rgb(100%, 100%, 100%)" d="M 104.359375 240.8125 C 93.8125 230.296875 86.25 220.785156 87.460938 219.570312 C 87.039062 218.367188 87.304688 216.976562 88.265625 216.011719 L 97.382812 206.875 C 98.714844 205.535156 100.882812 205.53125 102.222656 206.871094 L 138.402344 242.949219 C 139.742188 244.28125 139.742188 246.449219 138.40625 247.789062 L 129.292969 256.929688 C 128.292969 257.9375 126.824219 258.1875 125.582031 257.691406 C 124.160156 258.652344 114.757812 251.183594 104.359375 240.8125 " fill-opacity="1" fill-rule="nonzero"/><g clip-path="url(#id2)"><path fill="rgb(100%, 59.609985%, 0%)" d="M 104.359375 240.8125 L 105.070312 240.101562 C 100.1875 235.234375 95.949219 230.585938 92.949219 226.902344 C 91.449219 225.058594 90.257812 223.457031 89.460938 222.214844 C 89.0625 221.59375 88.761719 221.058594 88.574219 220.652344 C 88.484375 220.449219 88.417969 220.277344 88.382812 220.152344 C 88.339844 220.027344 88.335938 219.949219 88.339844 219.945312 L 88.023438 219.945312 L 88.316406 220.046875 C 88.339844 219.980469 88.339844 219.945312 88.339844 219.945312 L 88.023438 219.945312 L 88.316406 220.046875 L 87.742188 219.851562 L 88.167969 220.285156 C 88.246094 220.210938 88.296875 220.109375 88.316406 220.046875 L 87.742188 219.851562 L 88.167969 220.285156 C 88.445312 220.011719 88.539062 219.601562 88.40625 219.234375 C 88.316406 218.976562 88.269531 218.703125 88.269531 218.429688 C 88.269531 217.8125 88.503906 217.199219 88.976562 216.722656 L 98.089844 207.585938 C 98.566406 207.109375 99.179688 206.875 99.804688 206.875 C 100.425781 206.875 101.039062 207.109375 101.511719 207.578125 L 137.691406 243.65625 C 138.167969 244.132812 138.398438 244.746094 138.398438 245.371094 C 138.398438 245.992188 138.167969 246.609375 137.691406 247.085938 L 137.695312 247.082031 L 128.578125 256.222656 C 128.105469 256.699219 127.492188 256.929688 126.863281 256.933594 C 126.554688 256.933594 126.246094 256.875 125.953125 256.757812 C 125.644531 256.636719 125.296875 256.671875 125.019531 256.859375 L 125.328125 257.316406 L 125.195312 256.777344 C 125.152344 256.789062 125.085938 256.8125 125.019531 256.859375 L 125.328125 257.316406 L 125.195312 256.777344 L 125.253906 257.023438 L 125.253906 256.769531 L 125.195312 256.777344 L 125.253906 257.023438 L 125.253906 256.769531 C 125.253906 256.769531 125.175781 256.765625 125.050781 256.726562 C 124.8125 256.660156 124.417969 256.488281 123.941406 256.222656 C 123.101562 255.761719 121.984375 255.015625 120.675781 254.039062 C 116.742188 251.101562 111.066406 246.082031 105.070312 240.101562 L 104.359375 240.8125 L 103.648438 241.527344 C 108.570312 246.429688 113.261719 250.6875 117.027344 253.738281 C 118.910156 255.261719 120.558594 256.484375 121.902344 257.34375 C 122.578125 257.777344 123.175781 258.117188 123.710938 258.359375 C 123.980469 258.484375 124.234375 258.582031 124.484375 258.65625 C 124.734375 258.730469 124.980469 258.777344 125.253906 258.777344 C 125.519531 258.777344 125.839844 258.730469 126.144531 258.523438 L 125.582031 257.691406 L 125.210938 258.628906 C 125.738281 258.835938 126.300781 258.945312 126.863281 258.945312 C 127.996094 258.945312 129.140625 258.507812 130.003906 257.640625 L 139.117188 248.503906 L 139.121094 248.5 C 139.976562 247.636719 140.414062 246.5 140.410156 245.371094 C 140.414062 244.238281 139.976562 243.097656 139.113281 242.234375 L 102.933594 206.15625 C 102.070312 205.296875 100.933594 204.863281 99.804688 204.863281 C 98.671875 204.863281 97.53125 205.300781 96.667969 206.167969 L 87.554688 215.300781 C 86.691406 216.167969 86.257812 217.304688 86.261719 218.429688 C 86.261719 218.929688 86.34375 219.429688 86.511719 219.902344 L 87.460938 219.570312 L 86.753906 218.851562 C 86.585938 219.015625 86.472656 219.21875 86.410156 219.410156 C 86.347656 219.601562 86.328125 219.78125 86.328125 219.945312 C 86.328125 220.222656 86.378906 220.46875 86.453125 220.71875 C 86.589844 221.1875 86.816406 221.671875 87.125 222.230469 C 87.667969 223.203125 88.457031 224.371094 89.472656 225.726562 C 92.519531 229.78125 97.589844 235.484375 103.648438 241.527344 L 104.359375 240.8125 " fill-opacity="1" fill-rule="nonzero"/></g><path fill="rgb(100%, 100%, 100%)" d="M 277.589844 67.066406 C 262.613281 52.128906 249.070312 41.421875 247.351562 43.144531 L 247.347656 43.144531 C 245.636719 42.550781 243.667969 42.933594 242.300781 44.300781 L 229.355469 57.285156 C 227.457031 59.1875 227.457031 62.269531 229.363281 64.167969 L 280.753906 115.417969 C 282.65625 117.3125 285.738281 117.308594 287.640625 115.40625 L 300.585938 102.421875 C 302.007812 100.996094 302.359375 98.910156 301.648438 97.152344 C 303.007812 95.128906 292.359375 81.792969 277.589844 67.066406 " fill-opacity="1" fill-rule="nonzero"/><g clip-path="url(#id3)"><path fill="rgb(100%, 59.609985%, 0%)" d="M 277.589844 67.066406 L 278.300781 66.351562 C 271.320312 59.394531 264.652344 53.351562 259.320312 49.027344 C 256.652344 46.867188 254.320312 45.136719 252.425781 43.929688 C 251.480469 43.324219 250.640625 42.847656 249.910156 42.515625 C 249.539062 42.34375 249.195312 42.210938 248.871094 42.113281 C 248.539062 42.019531 248.222656 41.957031 247.894531 41.957031 C 247.691406 41.957031 247.480469 41.980469 247.257812 42.054688 C 247.039062 42.125 246.8125 42.253906 246.632812 42.4375 C 246.558594 42.515625 246.496094 42.601562 246.453125 42.695312 L 246.449219 42.699219 L 247.347656 43.144531 L 247.679688 42.199219 C 247.050781 41.980469 246.394531 41.867188 245.738281 41.867188 C 244.242188 41.867188 242.730469 42.445312 241.589844 43.589844 L 228.640625 56.574219 C 227.5 57.71875 226.925781 59.222656 226.925781 60.722656 C 226.925781 62.222656 227.503906 63.738281 228.65625 64.882812 L 280.042969 116.128906 C 281.1875 117.269531 282.691406 117.84375 284.191406 117.84375 C 285.691406 117.84375 287.203125 117.265625 288.351562 116.117188 L 301.296875 103.132812 C 302.4375 101.992188 303.011719 100.484375 303.007812 98.988281 C 303.007812 98.234375 302.867188 97.484375 302.582031 96.773438 L 301.648438 97.152344 L 302.484375 97.710938 C 302.707031 97.375 302.769531 97.007812 302.769531 96.691406 C 302.769531 96.359375 302.707031 96.042969 302.613281 95.714844 C 302.429688 95.097656 302.117188 94.425781 301.6875 93.652344 C 300.9375 92.300781 299.824219 90.652344 298.386719 88.738281 C 294.085938 83.007812 286.886719 74.917969 278.300781 66.351562 L 277.589844 67.066406 L 276.878906 67.777344 C 283.816406 74.695312 289.839844 81.308594 294.117188 86.550781 C 296.253906 89.175781 297.953125 91.457031 299.097656 93.246094 C 299.671875 94.136719 300.101562 94.910156 300.382812 95.511719 C 300.523438 95.816406 300.621094 96.078125 300.683594 96.28125 C 300.742188 96.488281 300.761719 96.632812 300.761719 96.691406 L 300.757812 96.71875 L 300.804688 96.722656 L 300.757812 96.710938 L 300.757812 96.71875 L 300.804688 96.722656 L 300.757812 96.710938 L 301.09375 96.78125 L 300.8125 96.59375 L 300.757812 96.710938 L 301.09375 96.78125 L 300.8125 96.59375 C 300.628906 96.871094 300.589844 97.222656 300.714844 97.53125 C 300.90625 97.996094 301 98.492188 301 98.988281 C 301 99.976562 300.628906 100.957031 299.875 101.710938 L 286.925781 114.695312 L 286.929688 114.695312 C 286.167969 115.457031 285.183594 115.828125 284.191406 115.832031 C 283.199219 115.828125 282.21875 115.457031 281.464844 114.703125 L 230.074219 63.457031 C 229.3125 62.699219 228.941406 61.714844 228.9375 60.722656 C 228.941406 59.730469 229.3125 58.75 230.066406 57.992188 L 243.011719 45.007812 C 243.769531 44.253906 244.746094 43.882812 245.738281 43.878906 C 246.171875 43.878906 246.605469 43.953125 247.019531 44.097656 C 247.496094 44.261719 248.019531 44.046875 248.25 43.59375 L 247.351562 43.144531 L 248.066406 43.851562 L 247.757812 43.542969 L 247.898438 43.960938 C 247.933594 43.945312 248.007812 43.910156 248.066406 43.851562 L 247.757812 43.542969 L 247.898438 43.960938 L 247.84375 43.796875 L 247.867188 43.96875 L 247.898438 43.960938 L 247.84375 43.796875 L 247.867188 43.96875 L 247.894531 43.96875 C 247.949219 43.964844 248.097656 43.984375 248.300781 44.042969 C 248.6875 44.15625 249.265625 44.410156 249.960938 44.792969 C 251.179688 45.46875 252.785156 46.539062 254.652344 47.933594 C 260.273438 52.128906 268.34375 59.269531 276.878906 67.777344 L 277.589844 67.066406 " fill-opacity="1" fill-rule="nonzero"/></g><path fill="rgb(100%, 100%, 100%)" d="M 112.292969 232.816406 C 97.316406 217.875 86.5625 204.371094 88.292969 202.640625 C 87.691406 200.933594 88.0625 198.964844 89.433594 197.589844 L 102.378906 184.609375 C 104.277344 182.703125 107.359375 182.703125 109.261719 184.601562 L 160.652344 235.847656 C 162.554688 237.746094 162.558594 240.828125 160.664062 242.730469 L 147.714844 255.714844 C 146.292969 257.136719 144.203125 257.5 142.449219 256.792969 C 140.425781 258.160156 127.066406 247.542969 112.292969 232.816406 " fill-opacity="1" fill-rule="nonzero"/><g clip-path="url(#id4)"><path fill="rgb(100%, 59.609985%, 0%)" d="M 112.292969 232.816406 L 113 232.105469 C 106.066406 225.183594 100.035156 218.570312 95.761719 213.324219 C 93.625 210.699219 91.921875 208.417969 90.777344 206.625 C 90.203125 205.734375 89.769531 204.964844 89.492188 204.355469 C 89.351562 204.054688 89.25 203.792969 89.191406 203.589844 C 89.128906 203.386719 89.113281 203.238281 89.113281 203.179688 L 89.113281 203.15625 L 88.878906 203.125 L 89.09375 203.21875 L 89.113281 203.15625 L 88.878906 203.125 L 89.09375 203.21875 L 88.675781 203.027344 L 88.996094 203.355469 L 89.09375 203.21875 L 88.675781 203.027344 L 88.996094 203.355469 C 89.1875 203.167969 89.296875 202.910156 89.296875 202.640625 C 89.296875 202.527344 89.277344 202.410156 89.238281 202.304688 C 89.09375 201.890625 89.019531 201.453125 89.019531 201.019531 C 89.019531 200.03125 89.390625 199.058594 90.144531 198.300781 L 103.089844 185.320312 C 103.847656 184.558594 104.832031 184.183594 105.824219 184.183594 C 106.816406 184.183594 107.792969 184.554688 108.554688 185.308594 L 159.941406 236.558594 C 160.699219 237.316406 161.074219 238.300781 161.074219 239.292969 C 161.074219 240.28125 160.703125 241.265625 159.949219 242.023438 L 147 255.003906 C 146.246094 255.761719 145.257812 256.136719 144.265625 256.140625 C 143.773438 256.140625 143.28125 256.046875 142.820312 255.859375 C 142.511719 255.738281 142.164062 255.773438 141.886719 255.960938 L 142.082031 256.253906 L 141.996094 255.90625 L 141.886719 255.960938 L 142.082031 256.253906 L 141.996094 255.90625 L 142.015625 255.980469 L 142.003906 255.90625 L 141.996094 255.90625 L 142.015625 255.980469 L 142.003906 255.90625 L 141.980469 255.90625 C 141.925781 255.90625 141.773438 255.890625 141.566406 255.828125 C 141.183594 255.714844 140.605469 255.460938 139.910156 255.078125 C 138.6875 254.402344 137.089844 253.335938 135.21875 251.941406 C 129.601562 247.746094 121.535156 240.613281 113 232.105469 L 112.292969 232.816406 L 111.582031 233.527344 C 118.558594 240.488281 125.222656 246.527344 130.554688 250.847656 C 133.21875 253.007812 135.550781 254.738281 137.445312 255.945312 C 138.390625 256.546875 139.230469 257.023438 139.964844 257.359375 C 140.332031 257.527344 140.675781 257.660156 141.003906 257.757812 C 141.335938 257.851562 141.648438 257.914062 141.980469 257.914062 C 142.304688 257.914062 142.667969 257.851562 143.007812 257.628906 L 142.449219 256.792969 L 142.070312 257.726562 C 142.773438 258.007812 143.519531 258.148438 144.265625 258.148438 C 145.769531 258.152344 147.28125 257.570312 148.425781 256.425781 L 161.371094 243.441406 C 162.511719 242.296875 163.085938 240.789062 163.085938 239.292969 C 163.085938 237.792969 162.507812 236.277344 161.359375 235.136719 L 109.972656 183.886719 C 108.828125 182.746094 107.324219 182.171875 105.824219 182.171875 C 104.324219 182.171875 102.8125 182.75 101.664062 183.902344 L 88.722656 196.882812 C 87.578125 198.023438 87.007812 199.527344 87.007812 201.019531 C 87.007812 201.679688 87.117188 202.34375 87.339844 202.972656 L 88.292969 202.640625 L 87.285156 202.640625 L 88.292969 202.640625 L 87.585938 201.925781 C 87.398438 202.105469 87.269531 202.328125 87.199219 202.550781 C 87.125 202.765625 87.101562 202.980469 87.101562 203.179688 C 87.101562 203.511719 87.167969 203.828125 87.261719 204.15625 C 87.445312 204.773438 87.757812 205.445312 88.183594 206.21875 C 88.9375 207.570312 90.050781 209.222656 91.488281 211.132812 C 95.796875 216.867188 102.996094 224.960938 111.582031 233.527344 L 112.292969 232.816406 " fill-opacity="1" fill-rule="nonzero"/></g><path fill="rgb(100%, 100%, 100%)" d="M 254.757812 118.777344 L 150.238281 223.582031 L 123.007812 196.425781 L 227.527344 91.621094 L 254.757812 118.777344 " fill-opacity="1" fill-rule="nonzero"/><path fill="rgb(100%, 59.609985%, 0%)" d="M 254.757812 118.777344 L 254.046875 118.066406 L 150.234375 222.164062 L 124.429688 196.425781 L 227.527344 93.042969 L 254.046875 119.488281 L 254.757812 118.777344 L 254.046875 118.066406 L 254.757812 118.777344 L 255.46875 118.0625 L 228.238281 90.910156 C 227.84375 90.519531 227.207031 90.519531 226.816406 90.910156 L 122.292969 195.714844 C 121.902344 196.109375 121.902344 196.746094 122.296875 197.136719 L 149.523438 224.296875 C 149.714844 224.480469 149.972656 224.589844 150.238281 224.589844 C 150.5 224.589844 150.761719 224.480469 150.945312 224.292969 L 255.46875 119.488281 C 255.65625 119.296875 255.765625 119.039062 255.761719 118.773438 C 255.761719 118.511719 255.65625 118.25 255.46875 118.0625 L 254.757812 118.777344 " fill-opacity="1" fill-rule="nonzero"/><path fill="rgb(100%, 100%, 100%)" d="M 263.265625 81.363281 C 240.882812 59.046875 220.652344 43.046875 218.078125 45.625 C 215.523438 44.738281 212.574219 45.308594 210.539062 47.351562 L 191.191406 66.75 C 188.355469 69.59375 188.363281 74.199219 191.207031 77.035156 L 267.988281 153.609375 C 270.835938 156.445312 275.4375 156.4375 278.277344 153.59375 L 297.617188 134.199219 C 299.746094 132.066406 300.277344 128.945312 299.210938 126.316406 C 301.238281 123.292969 285.335938 103.375 263.265625 81.363281 " fill-opacity="1" fill-rule="nonzero"/><path fill="rgb(100%, 59.609985%, 0%)" d="M 263.265625 81.363281 L 263.972656 80.652344 C 253.554688 70.265625 243.605469 61.246094 235.65625 54.800781 C 231.679688 51.582031 228.203125 49.003906 225.402344 47.214844 C 223.996094 46.320312 222.765625 45.621094 221.695312 45.136719 C 221.160156 44.890625 220.667969 44.699219 220.207031 44.5625 C 219.746094 44.429688 219.316406 44.347656 218.890625 44.34375 C 218.628906 44.34375 218.363281 44.375 218.097656 44.464844 C 217.835938 44.550781 217.574219 44.703125 217.363281 44.917969 L 218.078125 45.625 L 218.410156 44.675781 C 217.523438 44.367188 216.601562 44.214844 215.675781 44.214844 C 213.5625 44.214844 211.433594 45.023438 209.824219 46.644531 L 190.484375 66.039062 C 188.871094 67.652344 188.0625 69.773438 188.0625 71.886719 C 188.0625 74.003906 188.875 76.132812 190.492188 77.75 L 267.28125 154.320312 C 268.894531 155.929688 271.011719 156.742188 273.125 156.738281 C 275.246094 156.742188 277.371094 155.921875 278.988281 154.304688 L 298.332031 134.90625 C 299.941406 133.292969 300.75 131.171875 300.75 129.058594 C 300.75 128 300.546875 126.9375 300.144531 125.941406 L 299.210938 126.316406 L 300.046875 126.878906 C 300.308594 126.484375 300.390625 126.042969 300.390625 125.628906 C 300.390625 125.203125 300.308594 124.773438 300.175781 124.3125 C 299.917969 123.449219 299.46875 122.472656 298.839844 121.332031 C 297.738281 119.347656 296.082031 116.898438 293.945312 114.050781 C 287.539062 105.515625 276.792969 93.441406 263.972656 80.652344 L 263.265625 81.363281 L 262.550781 82.078125 C 272.929688 92.425781 281.945312 102.316406 288.34375 110.171875 C 291.542969 114.097656 294.09375 117.519531 295.820312 120.214844 C 296.683594 121.5625 297.34375 122.726562 297.773438 123.664062 C 297.988281 124.132812 298.144531 124.542969 298.246094 124.878906 C 298.34375 125.214844 298.378906 125.476562 298.378906 125.628906 C 298.378906 125.707031 298.371094 125.75 298.367188 125.769531 L 298.363281 125.777344 L 298.484375 125.832031 L 298.375 125.757812 L 298.363281 125.777344 L 298.484375 125.832031 L 298.375 125.757812 C 298.191406 126.035156 298.15625 126.386719 298.28125 126.695312 C 298.585938 127.449219 298.738281 128.253906 298.738281 129.058594 C 298.738281 130.664062 298.132812 132.257812 296.910156 133.484375 L 277.5625 152.882812 C 276.335938 154.113281 274.734375 154.726562 273.125 154.726562 C 271.519531 154.726562 269.925781 154.121094 268.699219 152.898438 L 191.914062 76.324219 C 190.6875 75.097656 190.074219 73.496094 190.074219 71.886719 C 190.074219 70.28125 190.679688 68.683594 191.902344 67.460938 L 211.25 48.0625 C 212.472656 46.832031 214.066406 46.226562 215.675781 46.222656 C 216.378906 46.222656 217.078125 46.34375 217.746094 46.574219 C 218.113281 46.699219 218.523438 46.605469 218.792969 46.332031 L 218.640625 46.179688 L 218.753906 46.367188 L 218.792969 46.332031 L 218.640625 46.179688 L 218.753906 46.367188 L 218.699219 46.277344 L 218.738281 46.375 L 218.753906 46.367188 L 218.699219 46.277344 L 218.738281 46.375 L 218.769531 46.367188 L 218.890625 46.355469 C 219.042969 46.355469 219.304688 46.390625 219.644531 46.492188 C 220.277344 46.675781 221.160156 47.070312 222.222656 47.652344 C 224.082031 48.675781 226.484375 50.289062 229.289062 52.382812 C 237.71875 58.671875 249.789062 69.347656 262.550781 82.078125 L 263.265625 81.363281 " fill-opacity="1" fill-rule="nonzero"/><path fill="rgb(100%, 100%, 100%)" d="M 126.554688 218.453125 C 104.171875 196.128906 88.117188 175.945312 90.6875 173.367188 C 89.792969 170.8125 90.359375 167.859375 92.398438 165.816406 L 111.738281 146.421875 C 114.578125 143.578125 119.183594 143.570312 122.027344 146.40625 L 198.808594 222.980469 C 201.65625 225.816406 201.65625 230.417969 198.824219 233.265625 L 179.480469 252.664062 C 177.351562 254.792969 174.234375 255.332031 171.605469 254.277344 C 168.585938 256.3125 148.625 240.460938 126.554688 218.453125 " fill-opacity="1" fill-rule="nonzero"/><path fill="rgb(100%, 59.609985%, 0%)" d="M 126.554688 218.453125 L 127.261719 217.738281 C 116.882812 207.386719 107.867188 197.496094 101.464844 189.632812 C 98.265625 185.707031 95.714844 182.28125 93.984375 179.585938 C 93.121094 178.238281 92.460938 177.070312 92.03125 176.132812 C 91.8125 175.667969 91.65625 175.253906 91.558594 174.921875 C 91.457031 174.585938 91.421875 174.320312 91.421875 174.171875 C 91.421875 174.078125 91.433594 174.027344 91.4375 174.023438 L 91.417969 174.015625 L 91.4375 174.023438 L 91.417969 174.015625 L 91.4375 174.023438 L 91.257812 173.945312 L 91.394531 174.082031 L 91.4375 174.023438 L 91.257812 173.945312 L 91.394531 174.082031 C 91.667969 173.808594 91.761719 173.402344 91.636719 173.035156 C 91.398438 172.359375 91.28125 171.652344 91.28125 170.949219 C 91.285156 169.34375 91.886719 167.75 93.105469 166.527344 L 112.449219 147.132812 C 113.679688 145.902344 115.28125 145.289062 116.890625 145.289062 C 118.496094 145.289062 120.089844 145.894531 121.316406 147.117188 L 198.097656 223.691406 C 199.328125 224.917969 199.9375 226.515625 199.941406 228.125 C 199.9375 229.730469 199.332031 231.328125 198.113281 232.554688 L 178.769531 251.949219 C 177.539062 253.183594 175.9375 253.792969 174.324219 253.796875 C 173.527344 253.796875 172.730469 253.644531 171.980469 253.34375 C 171.671875 253.21875 171.320312 253.253906 171.042969 253.441406 L 171.117188 253.546875 L 171.0625 253.429688 L 171.042969 253.441406 L 171.117188 253.546875 L 171.0625 253.429688 C 171.046875 253.4375 170.996094 253.445312 170.910156 253.445312 C 170.757812 253.449219 170.492188 253.410156 170.15625 253.308594 C 169.523438 253.125 168.640625 252.734375 167.578125 252.148438 C 165.722656 251.125 163.320312 249.515625 160.515625 247.421875 C 152.089844 241.136719 140.027344 230.464844 127.261719 217.738281 L 126.554688 218.453125 L 125.84375 219.160156 C 136.257812 229.546875 146.203125 238.566406 154.152344 245.007812 C 158.125 248.226562 161.597656 250.800781 164.402344 252.589844 C 165.804688 253.484375 167.039062 254.183594 168.105469 254.667969 C 168.640625 254.914062 169.132812 255.101562 169.59375 255.238281 C 170.054688 255.371094 170.484375 255.457031 170.910156 255.457031 C 171.328125 255.457031 171.769531 255.375 172.167969 255.109375 L 171.605469 254.277344 L 171.230469 255.207031 C 172.222656 255.605469 173.273438 255.808594 174.324219 255.808594 C 176.445312 255.808594 178.574219 254.992188 180.191406 253.371094 L 199.535156 233.976562 C 201.144531 232.359375 201.953125 230.238281 201.953125 228.125 C 201.953125 226.007812 201.140625 223.878906 199.519531 222.265625 L 122.734375 145.695312 C 121.125 144.085938 119.003906 143.277344 116.890625 143.277344 C 114.773438 143.277344 112.644531 144.09375 111.027344 145.714844 L 91.683594 165.109375 C 90.074219 166.71875 89.269531 168.839844 89.269531 170.949219 C 89.269531 171.878906 89.429688 172.808594 89.738281 173.699219 L 90.6875 173.367188 L 89.980469 172.652344 C 89.765625 172.863281 89.617188 173.125 89.53125 173.386719 C 89.441406 173.648438 89.410156 173.914062 89.410156 174.171875 C 89.414062 174.597656 89.492188 175.027344 89.628906 175.488281 C 89.882812 176.351562 90.335938 177.328125 90.964844 178.46875 C 92.066406 180.453125 93.722656 182.90625 95.859375 185.753906 C 102.273438 194.292969 113.019531 206.371094 125.84375 219.160156 L 126.554688 218.453125 " fill-opacity="1" fill-rule="nonzero"/></svg>